<?xml version="1.0" encoding="utf-8"?>
<!-- Generator: Adobe Illustrator 18.1.1, SVG Export Plug-In . SVG Version: 6.00 Build 0)  -->
<svg version="1.1" xmlns="http://www.w3.org/2000/svg" xmlns:xlink="http://www.w3.org/1999/xlink" x="0px" y="0px"
	 viewBox="0 0 128 128" enable-background="new 0 0 128 128" xml:space="preserve">
<g id="Layer_1">
	<path d="M13,0v85h102V0H13z M105,77H22V9h83V77z"/>
	<rect x="22" y="9" fill="#FFFFFF" width="83" height="68" />
	<rect x="30.3" y="18" width="67.3" height="50.3"/>
	<rect x="30.3" y="26.3" fill="#55BB3E" width="9" height="8.3"/>
	<rect x="47.1" y="26.3" fill="#55BB3E" width="9" height="8.3"/>
	<rect x="63.9" y="26.3" fill="#55BB3E" width="9" height="8.3"/>
	<rect x="39" y="43.3" fill="#55BB3E" width="17" height="8.3"/>
	<rect x="63.9" y="43.3" fill="#55BB3E" width="17" height="8.3"/>
	<rect x="12.8" y="102" width="102.2" height="25.9"/>
	<rect x="22.2" y="94" width="83.2" height="25.9"/>
	<rect x="47" y="79" width="33.8" height="25.9"/>
	<g>
		<rect x="30.3" y="110.5" fill="#FFFFFF" width="8.4" height="8.7"/>
		<rect x="38.8" y="101.8" fill="#FFFFFF" width="8.4" height="8.7"/>
		<rect x="47.2" y="110.5" fill="#FFFFFF" width="8.4" height="8.7"/>
		<rect x="55.6" y="101.8" fill="#FFFFFF" width="8.4" height="8.7"/>
		<rect x="64" y="110.5" fill="#FFFFFF" width="8.4" height="8.7"/>
		<rect x="72.4" y="101.8" fill="#FFFFFF" width="8.4" height="8.7"/>
		<rect x="80.8" y="110.5" fill="#FFFFFF" width="8.4" height="8.7"/>
		<rect x="89.2" y="101.8" fill="#FFFFFF" width="8.4" height="8.7"/>
	</g>
</g>
</svg>